<?xml version="1.0" encoding="UTF-8" standalone="no"?>
        <svg 
    viewBox="10.3271484375 -85.693359375 446.7041015625 56.8359375"
    width="436.376953125"
    height="142.529296875"
   xmlns="http://www.w3.org/2000/svg"
   xmlns:svg="http://www.w3.org/2000/svg">
   <path d="M58.37-42.92L58.37-89.58L58.37-97.34L78.44-89.58L88.48-89.58L88.48-101.22L56.25-101.22Q52.22-94.41 47.02-86.50Q41.82-78.59 36.91-72.58L36.91-72.58Q46.00-66.87 51.27-58.89Q56.54-50.90 58.37-42.92L58.37-42.92ZM10.33 14.43L10.33-116.53L10.33-124.66L32.23-116.53L37.50-116.53L47.24-125.98L66.14-108.91Q64.45-106.79 59.40-106.79L59.40-106.79L58.67-105.47L88.48-105.47L88.48-126.93L114.33-124.37Q114.11-122.75 113.01-121.69Q111.91-120.63 108.76-120.12L108.76-120.12L108.76-105.47L118.95-105.47L129.27-119.53Q129.27-119.53 131.14-117.99Q133.01-116.46 135.90-114.00Q138.79-111.55 141.94-108.80Q145.09-106.05 147.58-103.64L147.58-103.64Q146.92-101.22 143.26-101.22L143.26-101.22L108.76-101.22L108.76-89.58L117.11-89.58L125.83-98.88L143.70-85.47Q143.04-84.74 141.72-83.94Q140.41-83.13 138.28-82.62L138.28-82.62L138.28-39.77Q138.21-39.26 135.50-38.16Q132.79-37.06 129.02-36.15Q125.24-35.23 122.09-35.23L122.09-35.23L118.65-35.23L118.65-43.07L109.94-43.07Q113.96-34.42 120.45-28.56Q126.93-22.71 134.40-19.04Q141.87-15.38 148.97-13.33L148.97-13.33L148.68-12.01Q142.82-10.18 138.87-4.76Q134.91 0.66 133.37 8.13L133.37 8.13Q126.78 2.05 122.06-4.91Q117.33-11.87 114.11-20.73Q110.89-29.59 108.76-41.53L108.76-41.53L108.76 7.03Q108.76 8.13 106.27 9.78Q103.78 11.43 100.01 12.78Q96.24 14.14 92.43 14.14L92.43 14.14L88.48 14.14L88.48-19.63Q79.83-10.84 68.33-3.99Q56.84 2.86 42.77 7.98L42.77 7.98L41.53 6.30Q55.52-2.71 65.59-15.78Q75.66-28.86 81.15-43.07L81.15-43.07L77.56-43.07L77.56-39.62Q77.56-38.67 75.11-37.24Q72.66-35.82 68.88-34.72Q65.11-33.62 61.08-33.62L61.08-33.62L59.25-33.62Q59.03-23.00 53.98-16.66Q48.93-10.33 36.47-10.18L36.47-10.18Q36.47-14.36 35.93-19.26Q35.38-24.17 34.50-26.07L34.50-26.07Q33.40-28.27 30.32-29.74L30.32-29.74L30.32 8.13Q30.32 8.86 28.34 10.36Q26.37 11.87 22.71 13.15Q19.04 14.43 13.92 14.43L13.92 14.43L10.33 14.43ZM88.48-47.24L88.48-64.53L77.56-64.53L77.56-47.24L88.48-47.24ZM118.65-64.53L108.76-64.53L108.76-47.24L118.65-47.24L118.65-64.53ZM77.56-68.70L88.48-68.70L88.48-85.33L77.56-85.33L77.56-68.70ZM108.76-85.33L108.76-68.70L118.65-68.70L118.65-85.33L108.76-85.33ZM38.82-112.35L30.32-112.35L30.32-32.23L35.23-32.23Q37.13-32.23 38.23-33.03L38.23-33.03Q40.80-34.64 40.80-40.65L40.80-40.65Q40.80-48.41 39.11-56.73Q37.43-65.04 33.18-72.14L33.18-72.14Q34.20-77.20 35.34-84.30Q36.47-91.41 37.43-98.88Q38.38-106.35 38.82-112.35L38.82-112.35ZM238.04-127.37L238.04-127.37L269.97-121.80Q269.17-117.92 263.82-117.48L263.82-117.48Q260.23-113.53 255.21-107.92Q250.20-102.32 246.02-97.92L246.02-97.92L266.53-97.92L277.22-110.08L295.83-95.21Q294.87-94.12 293.44-93.16Q292.02-92.21 289.38-91.63L289.38-91.63L289.38 5.57Q289.38 6.15 287.15 7.58Q284.91 9.01 280.85 10.22Q276.78 11.43 271.22 11.43L271.22 11.43L267.48 11.43L267.48-0.59L237.30-0.59L237.30 7.03Q237.30 8.20 232.80 10.40Q228.30 12.60 220.17 12.60L220.17 12.60L216.43 12.60L216.43-48.27Q214.09-45.48 210.06-45.04Q206.03-44.60 201.93-48.27L201.93-48.27Q201.71-53.69 199.95-59.25Q198.19-64.82 196.07-69.43L196.07-69.43L196.07 8.42Q196.07 9.23 193.51 10.62Q190.94 12.01 187.10 13.15Q183.25 14.28 179.22 14.28L179.22 14.28L175.05 14.28L175.05-44.09Q170.58-37.94 165.20-32.23Q159.81-26.51 153.59-21.61L153.59-21.61L151.83-23.07Q157.18-31.49 161.35-41.89Q165.53-52.29 168.53-63.54Q171.53-74.78 173.36-85.77L173.36-85.77L156.74-85.77L155.57-90.01L175.05-90.01L175.05-127.95L201.64-125.39Q201.34-123.71 200.28-122.61Q199.22-121.51 196.07-121.07L196.07-121.07L196.07-90.31L203.98-103.34Q203.98-103.34 206.07-101.22Q208.15-99.10 211.05-96.06Q213.94-93.02 216.43-90.16L216.43-90.16L216.43-106.35L238.18-98.22Q238.33-104.44 238.29-112.65Q238.26-120.85 238.04-127.37ZM214.23-85.77L196.07-85.77L196.07-72.88Q204.35-70.75 209.29-67.68Q214.23-64.60 216.43-61.23L216.43-61.23L216.43-86.28Q215.55-85.77 214.23-85.77L214.23-85.77ZM267.48-50.24L237.30-50.24L237.30-4.83L267.48-4.83L267.48-50.24ZM237.30-93.75L237.30-54.42L267.48-54.42L267.48-93.75L237.30-93.75ZM389.72-73.02L389.72-87.16L414.92-85.03Q414.70-83.79 413.89-82.91Q413.09-82.03 410.67-81.59L410.67-81.59L410.67-73.02L414.92-73.02L422.68-82.62Q422.68-82.62 425.10-80.79Q427.51-78.96 430.81-76.32Q434.11-73.68 436.82-71.26L436.82-71.26Q436.38-68.85 432.93-68.85L432.93-68.85L410.67-68.85L410.67-53.54L417.11-53.54L425.83-64.38Q425.83-64.38 428.61-62.29Q431.40-60.21 435.13-57.28Q438.87-54.35 441.87-51.78L441.87-51.78Q441.43-49.37 437.84-49.37L437.84-49.37L426.64-49.37Q427.51-48.71 430.33-46.55Q433.15-44.38 436.60-41.67Q440.04-38.96 442.82-36.62L442.82-36.62Q442.16-34.20 438.57-34.20L438.57-34.20L401.73-34.20L401.73-11.13Q401.73-9.67 402.47-9.12Q403.20-8.57 405.91-8.57L405.91-8.57L417.48-8.57Q420.04-8.57 422.42-8.57Q424.80-8.57 426.27-8.72L426.27-8.72Q427.73-8.79 428.72-9.12Q429.71-9.45 430.52-10.33L430.52-10.33Q431.84-11.94 433.67-15.49Q435.50-19.04 437.99-24.46L437.99-24.46L439.53-24.46L439.97-10.03Q443.99-8.35 445.35-6.30Q446.70-4.25 446.70-1.17L446.70-1.17Q446.70 3.00 443.92 5.71Q441.14 8.42 434.22 9.78Q427.29 11.13 414.77 11.13L414.77 11.13L400.49 11.13Q392.07 11.13 387.74 9.67Q383.42 8.20 381.92 4.50Q380.42 0.81 380.42-6.01L380.42-6.01L380.42-34.20L367.97-34.20Q364.23-13.92 348.82-2.27Q333.40 9.38 304.83 14.14L304.83 14.14L304.32 12.30Q324.39 4.54 333.51-6.85Q342.63-18.24 344.38-34.20L344.38-34.20L309.16-34.20L307.98-38.38L416.97-38.38L425.83-49.37L368.85-49.37L367.68-53.54L389.72-53.54L389.72-68.85L374.41-68.85L373.17-73.02L389.72-73.02ZM363.28-112.65L363.28-128.10L390.45-126.12Q390.23-124.58 389.21-123.49Q388.18-122.39 385.03-121.80L385.03-121.80L385.03-112.65L399.90-112.65L409.79-124.95Q409.79-124.95 412.87-122.64Q415.94-120.34 420.15-117.04Q424.37-113.75 427.81-110.82L427.81-110.82Q427.15-108.47 423.63-108.47L423.63-108.47L385.03-108.47L385.03-93.75L413.38-93.75L423.27-106.05Q423.27-106.05 426.38-103.75Q429.49-101.44 433.74-98.14Q437.99-94.85 441.43-91.92L441.43-91.92Q440.77-89.58 437.26-89.58L437.26-89.58L314.72-89.58L313.48-93.75L363.28-93.75L363.28-108.47L327.76-108.47L326.51-112.65L363.28-112.65ZM331.20-73.02L331.20-87.16L355.66-85.18Q355.44-84.08 354.60-83.20Q353.76-82.32 351.27-81.88L351.27-81.88L351.27-73.02L352.66-73.02L359.84-81.88Q359.84-81.88 362.11-80.16Q364.38-78.44 367.53-75.99Q370.68-73.54 373.17-71.26L373.17-71.26Q372.51-68.85 369.29-68.85L369.29-68.85L351.27-68.85L351.27-58.81L375.15-60.86L375.29-58.81Q367.31-55.66 355.26-51.60Q343.21-47.53 325.63-42.11L325.63-42.11Q324.98-40.72 323.91-39.88Q322.85-39.04 321.75-38.67L321.75-38.67L312.60-56.10L331.20-57.28L331.20-68.85L316.33-68.85L315.16-73.02L331.20-73.02Z"/>
    </svg>
        