<svg width="257" height="257" version="1.1" xmlns="http://www.w3.org/2000/svg" xmlns:xlink="http://www.w3.org/1999/xlink"><path d="M169.36 81.47L169.36 81.47Q169.36 84.30 167.05 84.81L167.05 84.81Q166.02 85.07 154.20 85.32L154.20 85.32L152.66 85.32Q134.41 86.09 118.99 88.66L118.99 88.66Q105.63 90.46 92.26 94.32L92.26 94.32L81.98 97.40Q77.87 98.17 74.02 96.12L74.02 96.12Q71.96 95.09 70.16 93.03L70.16 93.03L71.45 91.49L110.51 84.30L110.51 69.90Q94.83 69.90 92.78 69.39L92.78 69.39L87.38 67.85Q84.81 66.82 84.81 64.76L84.81 64.76L87.64 62.97L109.74 59.88Q109.23 40.09 105.37 32.38L105.37 32.38L103.83 29.81Q103.83 26.99 106.14 25.44L106.14 25.44Q119.76 26.21 126.70 33.92L126.70 33.92Q126.70 38.55 125.16 41.12L125.16 41.12L123.36 55.51Q136.47 52.43 136.98 52.43L136.98 52.43Q144.43 51.66 150.09 56.54L150.09 56.54Q150.09 60.40 143.41 61.42L143.41 61.42L122.33 66.56L120.28 81.73L142.63 77.10Q145.46 76.07 148.03 75.04L148.03 75.04Q163.19 75.04 169.36 81.47ZM192.49 136.72L193.52 138.78L191.21 140.84Q167.05 142.89 141.61 146.75L141.61 146.75L120.53 150.34L118.48 150.34Q112.05 150.34 108.20 145.20L108.20 145.20Q107.17 143.92 106.66 142.63L106.66 142.63Q113.08 140.32 131.33 139.29L131.33 139.29Q137.75 139.04 142.12 138.27L142.12 138.27L142.12 121.82L140.84 121.30Q128.24 122.59 122.59 119.25L122.59 119.25L120.02 117.45Q120.28 114.11 140.84 113.08L140.84 113.08Q140.84 103.57 136.72 97.40L136.72 97.40Q136.47 89.69 149.57 96.63L149.57 96.63Q154.97 99.46 156.77 101.77L156.77 101.77L154.71 109.48L168.85 106.40Q176.82 105.37 181.70 110.00L181.70 110.00Q181.70 113.34 178.87 113.85L178.87 113.85L153.69 118.99L152.91 120.28L150.86 136.47Q176.82 132.61 180.93 132.36L180.93 132.36Q183.24 132.36 185.30 132.36L185.30 132.36Q191.47 135.18 192.49 136.72L192.49 136.72ZM102.03 139.81L102.03 139.81Q101.26 142.38 93.81 146.49L93.81 146.49L92.78 147.00Q87.38 149.83 62.71 158.31L62.71 158.31Q46.26 163.71 37.01 170.13L37.01 170.13Q31.35 170.13 24.93 164.22L24.93 164.22Q21.59 160.88 21.59 158.06L21.59 158.06L23.39 156.26Q29.30 155.49 58.08 150.09L58.08 150.09Q61.68 149.32 64.51 148.80L64.51 148.80Q64.51 140.58 63.74 132.36L63.74 132.36L50.37 134.67Q45.23 134.93 41.63 132.10L41.63 132.10Q40.35 131.07 39.32 129.79L39.32 129.79L41.63 128.24L58.08 124.90Q60.65 124.13 62.97 123.10L62.97 123.10Q60.40 111.02 59.37 108.97L59.37 108.97Q58.60 107.17 57.57 105.88L57.57 105.88Q57.57 103.83 60.65 102.29L60.65 102.29Q71.96 103.57 77.61 109.48L77.61 109.48L76.07 117.96L76.07 118.22L80.44 116.68Q84.30 115.39 90.46 116.94L90.46 116.94Q94.83 118.22 96.38 120.28L96.38 120.28L95.60 122.33Q88.92 124.90 75.30 128.76L75.30 128.76L73.76 145.72Q77.36 145.72 92.26 141.61L92.26 141.61Q98.17 140.06 102.03 139.81ZM218.45 231.81L218.45 231.81Q217.42 244.41 181.44 250.06L181.44 250.06Q169.11 252.12 161.14 252.12L161.14 252.12Q139.29 252.12 124.64 244.15L124.64 244.15Q111.28 236.70 111.02 218.45L111.02 218.45L112.05 190.44Q111.80 182.47 109.74 176.30L109.74 176.30Q94.58 177.84 88.67 180.16L88.67 180.16Q95.09 185.55 95.09 189.92L95.09 189.92L73.25 216.65Q61.68 229.50 51.66 235.16L51.66 235.16Q31.10 246.21 17.99 246.21L17.99 246.21Q18.50 243.64 23.90 241.58L23.90 241.58Q50.89 228.47 67.33 207.91L67.33 207.91Q77.36 194.81 79.67 182.21L79.67 182.21L62.97 184.01Q53.20 183.75 50.12 176.30L50.12 176.30L52.69 174.76Q80.18 172.45 115.14 165.25L115.14 165.25L140.58 159.85Q142.38 159.60 144.43 159.34L144.43 159.34Q148.55 159.08 153.69 160.63L153.69 160.63Q161.14 162.68 160.88 167.05L160.88 167.05L158.06 169.36Q130.04 171.93 116.68 175.02L116.68 175.02Q121.05 176.82 123.87 180.93L123.87 180.93L120.28 213.31L120.28 215.88Q120.28 236.18 150.09 236.44L150.09 236.44Q171.16 236.44 188.90 228.99L188.90 228.99Q189.41 228.99 189.67 228.73L189.67 228.73Q195.58 222.82 203.54 206.11L203.54 206.11Q206.11 200.46 208.17 197.38L208.17 197.38Q210.23 197.38 210.48 198.66L210.48 198.66L211.77 207.91Q213.31 218.19 218.45 231.81Z" stroke="#000" fill="black" /></svg>