<svg width="257" height="257" version="1.1" xmlns="http://www.w3.org/2000/svg" xmlns:xlink="http://www.w3.org/1999/xlink"><path d="M218.19 89.52L218.19 89.52Q218.19 92.61 213.57 101.09L213.57 101.09Q211.00 105.97 211.00 109.57L211.00 109.57L209.71 168.93Q209.71 177.16 205.34 189.75L205.34 189.75Q200.97 201.83 195.58 199.52L195.58 199.52Q192.24 195.41 183.24 179.73L183.24 179.73Q182.73 178.96 182.47 178.19L182.47 178.19Q173.99 177.67 143.41 179.47L143.41 179.47L141.86 179.47Q141.35 185.90 139.04 188.21L139.04 188.21Q126.70 187.44 129.78 149.92L129.78 149.92Q130.56 139.64 130.56 138.35L130.56 138.35Q130.56 104.94 121.30 87.47L121.30 87.47Q124.13 83.61 134.93 91.32L134.93 91.32Q136.47 92.35 136.98 92.61L136.98 92.61L147.26 91.06L156.51 58.42Q159.60 44.55 158.31 32.98L158.31 32.98Q156.26 29.64 156.26 28.61L156.26 28.61Q159.08 24.50 169.88 25.53L169.88 25.53Q172.45 25.79 173.47 25.79L173.47 25.79Q182.21 28.87 182.47 29.13L182.47 29.13Q184.01 29.90 185.04 31.44L185.04 31.44L184.53 34.78Q177.84 43.26 165.25 67.42L165.25 67.42L156.26 84.12Q154.20 87.21 152.14 89.78L152.14 89.78Q158.31 89.01 177.84 82.58L177.84 82.58Q190.95 78.21 199.43 78.21L199.43 78.21Q212.80 83.35 218.19 89.52ZM194.03 96.97L194.03 96.97L192.75 93.89Q189.67 91.58 185.30 91.83L185.30 91.83L174.76 94.40L142.12 101.60Q141.61 101.86 141.09 101.86L141.09 101.86L140.58 130.90Q167.82 122.16 177.84 124.47L177.84 124.47Q184.53 126.02 185.81 131.67L185.81 131.67Q184.01 133.73 183.50 133.73L183.50 133.73Q180.41 135.01 140.58 137.84L140.58 137.84L141.86 170.99L173.73 166.11Q177.07 165.85 180.16 165.85L180.16 165.85Q184.53 166.11 190.95 171.50L190.95 171.50Q191.47 171.76 191.98 172.28L191.98 172.28L193.26 170.48Q195.83 146.06 195.32 119.08L195.32 119.08Q195.06 108.28 194.03 96.97ZM110.51 143.49L110.51 143.49L106.14 142.98L86.09 128.07Q84.55 143.49 84.30 193.61L84.30 193.61Q84.30 196.69 84.30 199.52L84.30 199.52Q84.30 209.28 76.33 215.71L76.33 215.71Q70.93 214.17 68.11 202.34L68.11 202.34Q67.85 201.32 67.59 201.06L67.59 201.06Q65.02 191.55 69.65 172.79L69.65 172.79Q72.73 160.45 72.99 154.54L72.99 154.54Q74.02 125.76 73.76 118.56L73.76 118.56Q56.54 152.23 22.10 180.24L22.10 180.24L19.02 180.50L18.25 179.47L18.76 177.67L19.02 177.42Q21.33 173.30 33.41 157.88L33.41 157.88Q35.47 155.31 37.01 153.00L37.01 153.00Q60.14 122.42 70.42 98.77L70.42 98.77L48.06 102.37Q36.24 103.14 29.81 96.97L29.81 96.97Q29.81 95.69 33.41 94.15L33.41 94.15Q42.66 93.38 69.90 86.95L69.90 86.95Q72.47 86.44 74.79 85.92L74.79 85.92L75.30 52.26Q74.27 30.15 66.31 18.85L66.31 18.85Q66.31 11.65 78.13 16.79L78.13 16.79Q88.41 21.42 92.26 27.33L92.26 27.33Q93.29 28.61 93.29 29.64L93.29 29.64Q93.29 30.41 91.23 36.58L91.23 36.58Q90.98 36.84 90.98 37.09L90.98 37.09Q86.87 48.92 86.61 79.76L86.61 79.76Q86.61 80.78 86.35 81.81L86.35 81.81L101.26 79.50Q108.71 79.24 112.82 84.64L112.82 84.64Q112.57 89.26 88.67 94.40L88.67 94.40Q87.12 94.66 86.35 94.92L86.35 94.92L85.58 120.62L85.58 120.88L101.77 124.99Q111.02 128.59 112.57 135.78L112.57 135.78L112.82 137.84Q112.82 142.21 110.51 143.49Z" stroke="#000" fill="black" /></svg>